<svg width="19" height="19" viewBox="0 0 19 19" fill="none" xmlns="http://www.w3.org/2000/svg">
<circle cx="9.5" cy="9.5" r="9.5" fill="#E84142"/>
<path fill-rule="evenodd" clip-rule="evenodd" d="M10.0685 2.82009C9.73941 2.25158 9.21579 2.25158 8.88665 2.82009L2.90988 13.3449C2.58075 13.9209 2.85004 14.3772 3.50831 14.3772H6.50791C7.11382 14.3398 7.65988 14.0181 7.98902 13.5095L11.602 7.24843C11.8638 6.70985 11.8638 6.07402 11.602 5.53544L10.5248 3.64292L10.0685 2.82009ZM14.0405 9.74688C13.7114 9.17838 13.1803 9.17838 12.8512 9.74688L10.7642 13.3449C10.4425 13.9134 10.7118 14.3772 11.3626 14.3772H15.4917C16.15 14.3772 16.4193 13.9134 16.0901 13.3449L14.0405 9.74688Z" fill="white"/>
</svg>
