<svg width="32" height="32" viewBox="0 0 32 32" fill="none" xmlns="http://www.w3.org/2000/svg">
<path d="M16 32C24.8366 32 32 24.8366 32 16C32 7.16345 24.8366 0 16 0C7.16345 0 0 7.16345 0 16C0 24.8366 7.16345 32 16 32Z" fill="#D1FF52"/>
<path d="M22.4404 16.6777H11.4644V20.3366H22.4404V16.6777Z" fill="#040000"/>
<path d="M26.0993 11.1892H22.4404V16.6778H26.0993V11.1892Z" fill="#040000"/>
<path d="M11.4643 20.3367H7.80475V21.2519V22.1664V25.8247H11.4636V22.1664H11.4643V20.3367Z" fill="#040000"/>
<path d="M22.4403 7.53003H11.4643H10.9382H7.80475V14.8478V16.0158V16.6775H11.4643V16.0158V14.8478V11.1889H22.4403V7.53003Z" fill="#040000"/>
<path d="M22.4404 16.6777H11.4644V20.3366H22.4404V16.6777Z" fill="#040000"/>
</svg>
