<svg width="19" height="20" viewBox="0 0 19 20" fill="none" xmlns="http://www.w3.org/2000/svg">
<g clip-path="url(#clip0_325_2105)">
<circle cx="9.50006" cy="10" r="9.26471" fill="#7F6EE9"/>
<path d="M9.70548 3.07119V3.07776C9.71206 3.11065 9.71206 3.15012 9.71206 3.18959V7.93219C9.70548 7.9585 9.68575 7.96508 9.66602 7.97824C9.52788 8.04401 9.39633 8.10321 9.25819 8.16241C9.06744 8.24793 8.8701 8.34001 8.67934 8.42553L7.98867 8.74126C7.79792 8.82677 7.60716 8.91228 7.42298 8.9978C7.19934 9.10304 6.96911 9.20171 6.74547 9.30695C6.55471 9.39247 6.36395 9.48455 6.16662 9.57007C6.00875 9.64242 5.85088 9.7082 5.6996 9.78056C5.68644 9.78713 5.67328 9.79371 5.66013 9.79371C5.65355 9.79371 5.65355 9.79371 5.64697 9.78713L5.82457 9.49113C6.16662 8.92544 6.50209 8.36633 6.84413 7.80063C7.20591 7.19548 7.57427 6.59032 7.93605 5.98516C8.27152 5.42604 8.61357 4.86693 8.94904 4.30782C9.19241 3.89999 9.44237 3.49217 9.68575 3.08434C9.69233 3.07119 9.69891 3.06461 9.69891 3.05145H9.70548C9.69891 3.05803 9.70548 3.06461 9.70548 3.07119Z" fill="#F3F3F3"/>
<path d="M13.7437 9.78714L13.7503 9.79372L12.7833 10.366L9.74439 12.1617C9.73124 12.1683 9.71808 12.1749 9.71151 12.1815C9.69177 12.1815 9.69177 12.1617 9.69177 12.1552V12.096V8.03086C9.69177 8.01113 9.69177 7.98482 9.69835 7.96508C9.70493 7.93877 9.72466 7.94535 9.74439 7.95193C9.82991 7.9914 9.922 8.03086 10.0075 8.07033C10.264 8.18873 10.5206 8.30713 10.7771 8.41895C11.0008 8.51762 11.2178 8.62287 11.4415 8.72153C11.6651 8.8202 11.8888 8.92544 12.1124 9.02411C12.3032 9.10962 12.5005 9.20171 12.6913 9.28722C12.882 9.37274 13.0793 9.46483 13.2701 9.55034C13.4214 9.61612 13.5727 9.68847 13.724 9.75425C13.724 9.77398 13.7305 9.78056 13.7437 9.78714Z" fill="#8A8DA7"/>
<path d="M9.70499 16.2663C9.70499 16.2729 9.69842 16.2794 9.69842 16.286H9.69184C9.69184 16.2729 9.67868 16.2663 9.6721 16.2531C9.26428 15.6809 8.85646 15.102 8.44863 14.5297C8.03423 13.9443 7.61325 13.3523 7.19885 12.7669C6.7976 12.2012 6.38978 11.6289 5.98853 11.0632C5.88329 10.9119 5.77804 10.7672 5.6728 10.6159C5.66622 10.6028 5.65964 10.5962 5.64648 10.5765C5.66622 10.5765 5.67937 10.5896 5.68595 10.5962C6.25822 10.9317 6.82391 11.2671 7.39618 11.6026C8.05396 11.9907 8.70517 12.3788 9.36295 12.7669L9.69842 12.9642C9.71157 12.9774 9.71157 12.9905 9.71157 13.0037V16.1742C9.71157 16.2071 9.71157 16.24 9.70499 16.2663Z" fill="#F3F3F3"/>
<path d="M5.63977 9.80032V9.79374C5.85026 9.70165 6.05417 9.60298 6.26466 9.51089C6.53435 9.38592 6.80404 9.26751 7.07373 9.14254C7.27765 9.05045 7.48814 8.95178 7.69205 8.85969C7.99463 8.72156 8.29063 8.59 8.59321 8.45187C8.79712 8.35978 9.00103 8.26769 9.21152 8.16902C9.35624 8.10324 9.50752 8.03746 9.65224 7.97168C9.66539 7.96511 9.68513 7.95853 9.6917 7.94537C9.69828 7.94537 9.69828 7.95195 9.6917 7.95853V12.1354C9.6917 12.1552 9.68513 12.1749 9.69828 12.1881C9.68513 12.2078 9.67197 12.1881 9.66539 12.1815C9.60619 12.1486 9.54699 12.1157 9.48779 12.0762C8.21827 11.3264 6.94218 10.5699 5.67266 9.82005C5.66608 9.81347 5.65293 9.8069 5.63977 9.80032Z" fill="#C5C8D9"/>
<path d="M13.7306 10.5765H13.7371C13.7371 10.5896 13.724 10.6028 13.7174 10.6159C12.5071 12.3196 11.2968 14.0298 10.0865 15.7335C9.96148 15.9111 9.82992 16.0887 9.70494 16.2663C9.69836 16.2597 9.69836 16.2531 9.69836 16.2466V16.2071V13.0168V12.9576C9.97463 12.7932 10.2443 12.6353 10.5206 12.4709C11.5862 11.8394 12.6518 11.2145 13.7108 10.5831C13.7174 10.5896 13.724 10.5831 13.7306 10.5765Z" fill="#C5C8D9"/>
<path d="M9.69834 7.9585V7.94534V7.90587V3.13038C9.69834 3.11065 9.69176 3.09749 9.70491 3.07776C11.0402 5.29448 12.3755 7.50463 13.7042 9.72135C13.7174 9.74108 13.7371 9.7674 13.7437 9.79371C13.6516 9.76082 13.5661 9.71477 13.4806 9.67531C13.3753 9.62926 13.2635 9.57664 13.1583 9.53059C13.0925 9.4977 13.0201 9.47139 12.9544 9.4385C12.8425 9.38588 12.7307 9.33984 12.6189 9.28722C12.5531 9.2609 12.4873 9.22801 12.4216 9.19513L11.9874 8.99779C11.9151 8.9649 11.8427 8.93201 11.7638 8.89912L11.448 8.76099C11.3823 8.73468 11.3165 8.70179 11.2507 8.6689L10.8166 8.47157C10.7442 8.43868 10.6719 8.40579 10.5929 8.3729L10.2772 8.23476C10.2048 8.20188 10.139 8.16899 10.0667 8.1361C9.94172 8.0769 9.81674 8.0177 9.68518 7.96507C9.70491 7.9585 9.69834 7.9585 9.69834 7.9585Z" fill="#C5C8D9"/>
</g>
<defs>
<clipPath id="clip0_325_2105">
<rect width="18.5294" height="18.5294" fill="white" transform="translate(0.235352 0.735291)"/>
</clipPath>
</defs>
</svg>
