<svg width="19" height="19" viewBox="0 0 19 19" fill="none" xmlns="http://www.w3.org/2000/svg">
<circle cx="9.5" cy="9.5" r="9.5" fill="#13B5EC"/>
<path fill-rule="evenodd" clip-rule="evenodd" d="M10.2917 7.6008L12.4292 6.34766V8.85394L10.2917 7.6008ZM12.4292 12.9714L9.57919 14.6423L6.72919 12.9714V10.0474L9.57919 11.7183L12.4292 10.0474V12.9714ZM6.72919 6.34766L8.86669 7.6008L6.72919 8.85394V6.34766ZM9.93542 8.19753L12.0729 9.45067L9.93542 10.7038V8.19753ZM9.22289 10.7038L7.08539 9.45067L9.22289 8.19753V10.7038ZM12.0729 5.75092L9.57914 7.18308L7.08539 5.75092L9.57914 4.25908L12.0729 5.75092ZM6.01666 5.51223V13.3294L9.57916 15.3583L13.1417 13.3294V5.51223L9.57916 3.48334L6.01666 5.51223Z" fill="white"/>
</svg>
