<svg width="14" height="14" viewBox="0 0 14 14" fill="none" xmlns="http://www.w3.org/2000/svg">
<path d="M6.99992 1.66665C4.0544 1.66665 1.66659 4.05446 1.66659 6.99998C1.66659 9.9455 4.0544 12.3333 6.99992 12.3333C9.94544 12.3333 12.3333 9.9455 12.3333 6.99998C12.3333 4.05446 9.94544 1.66665 6.99992 1.66665ZM0.333252 6.99998C0.333252 3.31808 3.31802 0.333313 6.99992 0.333313C10.6818 0.333313 13.6666 3.31808 13.6666 6.99998C13.6666 10.6819 10.6818 13.6666 6.99992 13.6666C3.31802 13.6666 0.333252 10.6819 0.333252 6.99998ZM10.1095 4.83504C10.3847 5.07965 10.4095 5.50103 10.1649 5.77622L6.6093 9.77622C6.48279 9.91855 6.30146 9.99998 6.11103 9.99998C5.9206 9.99998 5.73927 9.91855 5.61276 9.77622L3.83498 7.77622C3.59037 7.50103 3.61515 7.07965 3.89034 6.83504C4.16553 6.59043 4.58691 6.61522 4.83152 6.8904L6.11103 8.32985L9.16831 4.8904C9.41292 4.61522 9.83431 4.59043 10.1095 4.83504Z" fill="#05D5FA"/>
</svg>
