<svg width="14" height="14" viewBox="0 0 14 14" fill="none" xmlns="http://www.w3.org/2000/svg">
<path d="M6.99992 1.66665C4.0544 1.66665 1.66659 4.05446 1.66659 6.99998C1.66659 9.9455 4.0544 12.3333 6.99992 12.3333C9.94544 12.3333 12.3333 9.9455 12.3333 6.99998C12.3333 4.05446 9.94544 1.66665 6.99992 1.66665ZM0.333252 6.99998C0.333252 3.31808 3.31802 0.333313 6.99992 0.333313C10.6818 0.333313 13.6666 3.31808 13.6666 6.99998C13.6666 10.6819 10.6818 13.6666 6.99992 13.6666C3.31802 13.6666 0.333252 10.6819 0.333252 6.99998Z" fill="#D02F44"/>
<path d="M6.99992 8.33331C6.63173 8.33331 6.33325 8.03484 6.33325 7.66665L6.33325 3.66665C6.33325 3.29846 6.63173 2.99998 6.99992 2.99998C7.36811 2.99998 7.66659 3.29846 7.66659 3.66665L7.66659 7.66665C7.66659 8.03484 7.36811 8.33331 6.99992 8.33331Z" fill="#D02F44"/>
<path d="M5.99992 9.99998C5.99992 9.44769 6.44763 8.99998 6.99992 8.99998C7.5522 8.99998 7.99992 9.44769 7.99992 9.99998C7.99992 10.5523 7.5522 11 6.99992 11C6.44763 11 5.99992 10.5523 5.99992 9.99998Z" fill="#D02F44"/>
</svg>
