<svg width="18" height="18" viewBox="0 0 18 18" fill="none" xmlns="http://www.w3.org/2000/svg">
<path d="M0.666748 2.33333C0.666748 1.41286 1.41294 0.666667 2.33341 0.666667H10.6667C11.5872 0.666667 12.3334 1.41286 12.3334 2.33333V5.66667H15.6667C16.5872 5.66667 17.3334 6.41286 17.3334 7.33333V15.6667C17.3334 16.5871 16.5872 17.3333 15.6667 17.3333H7.33342C6.41294 17.3333 5.66675 16.5871 5.66675 15.6667V12.3333H2.33341C1.41294 12.3333 0.666748 11.5871 0.666748 10.6667V2.33333ZM7.33342 12.3333V15.6667H15.6667V7.33333H12.3334V10.6667C12.3334 11.5871 11.5872 12.3333 10.6667 12.3333H7.33342ZM10.6667 10.6667V2.33333L2.33341 2.33333V10.6667H10.6667Z" fill="#00D632"/>
</svg>
