<svg width="19" height="19" viewBox="0 0 19 19" fill="none" xmlns="http://www.w3.org/2000/svg">
<circle cx="9.5" cy="9.5" r="9.5" fill="black"/>
<path d="M5.88918 11.7507C5.95502 11.6849 6.04554 11.6465 6.14154 11.6465H14.8479C15.007 11.6465 15.0865 11.8385 14.9741 11.9509L13.2542 13.6708C13.1884 13.7366 13.0978 13.775 13.0018 13.775H4.29549C4.13639 13.775 4.05684 13.583 4.16931 13.4706L5.88918 11.7507Z" fill="url(#paint0_linear_325_2328)"/>
<path d="M5.88918 5.32924C5.95776 5.26341 6.04828 5.22501 6.14154 5.22501H14.8479C15.007 5.22501 15.0865 5.41702 14.9741 5.52948L13.2542 7.24936C13.1884 7.31519 13.0978 7.35359 13.0018 7.35359H4.29549C4.13639 7.35359 4.05684 7.16158 4.16931 7.04912L5.88918 5.32924Z" fill="url(#paint1_linear_325_2328)"/>
<path d="M13.2542 8.5194C13.1884 8.45356 13.0978 8.41516 13.0018 8.41516H4.29549C4.13639 8.41516 4.05684 8.60717 4.16931 8.71964L5.88918 10.4395C5.95502 10.5053 6.04554 10.5437 6.14154 10.5437H14.8479C15.007 10.5437 15.0865 10.3517 14.9741 10.2393L13.2542 8.5194Z" fill="url(#paint2_linear_325_2328)"/>
<defs>
<linearGradient id="paint0_linear_325_2328" x1="-15.5612" y1="3.60984" x2="-15.7929" y2="15.2662" gradientUnits="userSpaceOnUse">
<stop stop-color="#00FFA3"/>
<stop offset="1" stop-color="#DC1FFF"/>
</linearGradient>
<linearGradient id="paint1_linear_325_2328" x1="-18.1959" y1="2.23429" x2="-18.4276" y2="13.8907" gradientUnits="userSpaceOnUse">
<stop stop-color="#00FFA3"/>
<stop offset="1" stop-color="#DC1FFF"/>
</linearGradient>
<linearGradient id="paint2_linear_325_2328" x1="-16.887" y1="2.91769" x2="-17.1186" y2="14.5741" gradientUnits="userSpaceOnUse">
<stop stop-color="#00FFA3"/>
<stop offset="1" stop-color="#DC1FFF"/>
</linearGradient>
</defs>
</svg>
