<svg width="19" height="20" viewBox="0 0 19 20" fill="none" xmlns="http://www.w3.org/2000/svg">
<circle cx="9.5" cy="9.75999" r="9.5" fill="#172852"/>
<path d="M7.65219 4.50554C8.76464 4.08944 10.0167 4.08849 11.1501 4.43049C12.6254 4.88839 13.8709 6.00179 14.5216 7.39924C14.7012 7.79729 14.8731 8.21244 14.8902 8.65514C14.0609 8.17444 13.1517 7.86284 12.2407 7.57879C10.7834 7.05344 9.25769 6.68864 7.87829 5.96664C7.55719 5.77474 7.14774 5.57809 7.06034 5.17814C7.02519 4.83234 7.39094 4.63949 7.65219 4.50554Z" fill="#FFD83D"/>
<path d="M4.29401 7.86853C4.61606 6.99453 5.14426 6.18323 5.86151 5.58188C6.04391 7.08193 6.68231 8.53163 7.73681 9.62223C9.00126 10.9361 10.8025 11.7426 12.635 11.7122C13.3627 11.735 14.0743 11.5669 14.7839 11.431C14.0857 13.9542 11.3202 15.6291 8.75806 15.2263C7.21146 15.0287 5.78361 14.1129 4.92196 12.8199C3.95011 11.3911 3.70501 9.49398 4.29401 7.86853Z" fill="#FFD83D"/>
<path d="M12.2407 7.5788C13.1518 7.86285 14.0609 8.17445 14.8903 8.65515L14.9463 8.6846C15.0233 9.26315 15.0793 9.8531 14.9767 10.4326C14.5597 10.2559 14.2215 9.94525 13.8681 9.6707C13.1879 9.1045 12.4934 8.4566 12.2407 7.5788Z" fill="#FF6F03"/>
</svg>
