<svg width="19" height="19" viewBox="0 0 19 19" fill="none" xmlns="http://www.w3.org/2000/svg">
<path fill-rule="evenodd" clip-rule="evenodd" d="M9.5 19C4.275 19 0 14.7251 0 9.4527C0.0475 4.2278 4.275 -0.047107 9.5475 0.000392037C14.7725 0.0478911 19 4.2753 19 9.59519C18.9525 14.7726 14.725 19 9.5 19" fill="#FC070C"/>
<path fill-rule="evenodd" clip-rule="evenodd" d="M16.2688 7.49013C16.0095 7.25074 15.7089 6.95888 15.3957 6.65475C14.9557 6.22757 14.4908 5.77618 14.0805 5.41201L14.0389 5.38291C13.9698 5.32738 13.8918 5.28383 13.8083 5.25407L13.4915 5.19498C11.3064 4.78726 4.22421 3.4658 4.07852 3.48351C4.03543 3.48955 3.99424 3.50517 3.95799 3.52923L3.9185 3.5604C3.86988 3.60978 3.83296 3.66943 3.81044 3.73497L3.80005 3.76198V3.90953V3.93239C4.28089 5.2713 5.52996 8.26141 6.68328 11.0223C7.65835 13.3565 8.56497 15.5268 8.88105 16.3969L8.88117 16.3973C8.92276 16.5262 9.00172 16.771 9.14913 16.7835H9.18238C9.26134 16.7835 9.598 16.3388 9.598 16.3388C9.598 16.3388 15.6162 9.0404 16.2251 8.26319C16.3039 8.16745 16.3735 8.06447 16.4329 7.95562C16.4638 7.78239 16.4015 7.60568 16.2688 7.49013ZM11.142 8.34007L13.7105 6.21L15.2172 7.59819L11.142 8.34007ZM5.72229 4.5766L10.1445 8.20084L12.8773 5.89621L5.72229 4.5766ZM10.5435 9.15054L15.0697 8.42112L9.89514 14.6555L10.5435 9.15054ZM9.77461 8.88662L5.1217 4.93819L9.1013 14.6596L9.77461 8.88662Z" fill="white"/>
</svg>
